# xmcd
#
# Track frame offsets:
#	150
#	13422
#	25999
#	37666
#	48550
#	62975
#	74732
#	88319
#	98536
#	113738
#	127967
#	143687
#	159336
#	170403
#
# Disc length: 2500 seconds
#
# Revision: 0
# Processed by: cddbd v1.4PL0 Copyright (c) Steve Scherf et al.
# Submitted via: dBpowerAMP V4.0
#
DISCID=bc09c20e
DTITLE=Kenny Rogers - 28 Country Favourites
DYEAR=2000
DGENRE=Country
TTITLE0=Ruby
TTITLE1=Ruben James
TTITLE2=Me And Bobby Mc-Ghee
TTITLE3=Homemade Lies
TTITLE4=It's Raining In My Mind
TTITLE5=Poem For a Little Lady
TTITLE6=A Stranger In My Place
TTITLE7=Where Does Rosie Go
TTITLE8=Tell It All Brother
TTITLE9=Loser
TTITLE10=Tulsa Turnaround
TTITLE11=My Washington Woman
TTITLE12=Always Leaving Always Gone
TTITLE13=Something's Burning
EXTD=Kenny Rogers, 28 Country Favourites
EXTT0=
EXTT1=
EXTT2=
EXTT3=
EXTT4=
EXTT5=
EXTT6=
EXTT7=
EXTT8=
EXTT9=
EXTT10=
EXTT11=
EXTT12=
EXTT13=
PLAYORDER=
